<?xml version="1.0" encoding="UTF-8" standalone="no"?>
<!-- Created with Inkscape (http://www.inkscape.org/) -->

<svg
   xmlns:dc="http://purl.org/dc/elements/1.1/"
   xmlns:cc="http://creativecommons.org/ns#"
   xmlns:rdf="http://www.w3.org/1999/02/22-rdf-syntax-ns#"
   xmlns:svg="http://www.w3.org/2000/svg"
   xmlns="http://www.w3.org/2000/svg"
   xmlns:sodipodi="http://sodipodi.sourceforge.net/DTD/sodipodi-0.dtd"
   xmlns:inkscape="http://www.inkscape.org/namespaces/inkscape"
   width="48px"
   height="48px"
   viewBox="0 0 48 48"
   version="1.1"
   id="SVGRoot"
   inkscape:version="0.92.2 (5c3e80d, 2017-08-06)"
   sodipodi:docname="loop.svg">
  <sodipodi:namedview
     id="base"
     pagecolor="#ffffff"
     bordercolor="#666666"
     borderopacity="1.0"
     inkscape:pageopacity="0.0"
     inkscape:pageshadow="2"
     inkscape:zoom="5.3333333"
     inkscape:cx="24"
     inkscape:cy="24"
     inkscape:document-units="px"
     inkscape:current-layer="layer1"
     showgrid="false"
     inkscape:window-width="1920"
     inkscape:window-height="1018"
     inkscape:window-x="-8"
     inkscape:window-y="-8"
     inkscape:window-maximized="1"
     inkscape:grid-bbox="true" />
  <defs
     id="defs5393" />
  <metadata
     id="metadata5396">
    <rdf:RDF>
      <cc:Work
         rdf:about="">
        <dc:format>image/svg+xml</dc:format>
        <dc:type
           rdf:resource="http://purl.org/dc/dcmitype/StillImage" />
        <dc:title></dc:title>
      </cc:Work>
    </rdf:RDF>
  </metadata>
  <g
     id="layer1"
     inkscape:groupmode="layer"
     inkscape:label="Layer 1">
    <g
       id="g5076"
       transform="matrix(3.2395943,0,0,3.2395945,1174.4913,-74.046366)">
      <path
         style="stroke-width:0.01653646"
         id="path3849-6-4"
         p-id="9837"
         fill=""
         d="m -355.13438,23.650428 c 0.89331,0 1.75948,0.174773 2.57444,0.519476 0.78757,0.33311 1.49505,0.810154 2.10276,1.417886 0.60773,0.607731 1.08478,1.315194 1.41789,2.102759 0.34472,0.814983 0.51949,1.681146 0.51949,2.574463 0,0.893316 -0.17477,1.759479 -0.51947,2.574445 -0.33312,0.787566 -0.81016,1.495045 -1.41789,2.10276 -0.60773,0.607731 -1.31519,1.084775 -2.10276,1.417886 -0.81498,0.344719 -1.68115,0.519493 -2.57446,0.519493 -0.89332,0 -1.75948,-0.174774 -2.57445,-0.519477 -0.78756,-0.33311 -1.49504,-0.810154 -2.10276,-1.417886 -0.60773,-0.607731 -1.08477,-1.315194 -1.41788,-2.102759 -0.34472,-0.814983 -0.5195,-1.681146 -0.5195,-2.574462 0,-0.893317 0.17478,-1.75948 0.51948,-2.574446 0.33311,-0.787566 0.81015,-1.495045 1.41789,-2.10276 0.60773,-0.607731 1.31519,-1.084775 2.10276,-1.417886 0.81498,-0.344719 1.68114,-0.519492 2.57446,-0.519492 m 0,-0.793751 c -4.09152,0 -7.40834,3.316817 -7.40834,7.408335 0,4.091517 3.31682,7.408334 7.40834,7.408334 4.09151,0 7.40833,-3.316817 7.40833,-7.408334 0,-4.091518 -3.31682,-7.408335 -7.40833,-7.408335 z"
         inkscape:connector-curvature="0" />
      <path
         style="fill:#050505;stroke-width:0.01424058"
         inkscape:connector-curvature="0"
         d="m -355.13558,33.618952 c -1.4696,0 -2.70706,-0.987224 -3.08824,-2.333176 h 0.94844 c 0.0904,-0.08779 0.13736,-0.206195 0.0473,-0.293397 l -1.09542,-1.1068 a 0.23565081,0.23565081 0 0 0 -0.32635,0 l -1.08785,1.1068 c -0.1292,0.151657 -0.0429,0.205611 0.0473,0.293397 h 0.8691 c 0.39548,1.670846 1.89191,2.916471 3.68583,2.916471 1.36491,0 2.55775,-0.72241 3.2265,-1.802379 l -0.54918,-0.219319 a 3.2075341,3.2075341 0 0 1 -2.67732,1.438403 z m 4.57478,-4.083058 h -0.82915 c -0.28144,-1.816378 -1.84875,-3.208118 -3.74563,-3.208118 -1.4629,0 -2.72981,0.827986 -3.36356,2.038905 l 0.54364,0.217277 a 3.2098672,3.2098672 0 0 1 2.81992,-1.672887 c 1.57374,0 2.88089,1.131882 3.15563,2.624823 h -0.99627 c -0.0907,0.08779 -0.17644,0.14174 -0.0473,0.293688 l 1.08756,1.106509 a 0.2362341,0.2362341 0 0 0 0.32635,0 l 1.09543,-1.106509 c 0.0904,-0.08779 0.0435,-0.206194 -0.0467,-0.293688 z"
         p-id="22345"
         id="path5048" />
    </g>
  </g>
</svg>
