<?xml version="1.0" encoding="UTF-8" standalone="no"?>
<!-- Created with Inkscape (http://www.inkscape.org/) -->

<svg
   xmlns:dc="http://purl.org/dc/elements/1.1/"
   xmlns:cc="http://creativecommons.org/ns#"
   xmlns:rdf="http://www.w3.org/1999/02/22-rdf-syntax-ns#"
   xmlns:svg="http://www.w3.org/2000/svg"
   xmlns="http://www.w3.org/2000/svg"
   xmlns:sodipodi="http://sodipodi.sourceforge.net/DTD/sodipodi-0.dtd"
   xmlns:inkscape="http://www.inkscape.org/namespaces/inkscape"
   width="48px"
   height="48px"
   viewBox="0 0 48 48"
   version="1.1"
   id="SVGRoot"
   inkscape:version="0.92.2 (5c3e80d, 2017-08-06)"
   sodipodi:docname="next-1.svg">
  <sodipodi:namedview
     id="base"
     pagecolor="#ffffff"
     bordercolor="#666666"
     borderopacity="1.0"
     inkscape:pageopacity="0.0"
     inkscape:pageshadow="2"
     inkscape:zoom="5.3333333"
     inkscape:cx="24"
     inkscape:cy="24"
     inkscape:document-units="px"
     inkscape:current-layer="layer1"
     showgrid="false"
     inkscape:window-width="1920"
     inkscape:window-height="1018"
     inkscape:window-x="-8"
     inkscape:window-y="-8"
     inkscape:window-maximized="1"
     inkscape:grid-bbox="true" />
  <defs
     id="defs5393" />
  <metadata
     id="metadata5396">
    <rdf:RDF>
      <cc:Work
         rdf:about="">
        <dc:format>image/svg+xml</dc:format>
        <dc:type
           rdf:resource="http://purl.org/dc/dcmitype/StillImage" />
        <dc:title></dc:title>
      </cc:Work>
    </rdf:RDF>
  </metadata>
  <g
     id="layer1"
     inkscape:groupmode="layer"
     inkscape:label="Layer 1">
    <g
       id="g3841"
       transform="matrix(0.05357143,0,0,0.05357143,-3.4285715,-3.4285728)">
      <path
         id="path3825"
         p-id="8786"
         fill=""
         d="m 355.731,362 258,158.076 -258,157.924 z"
         inkscape:connector-curvature="0" />
      <path
         id="path3827"
         p-id="8787"
         fill=""
         d="m 512,112 c 54.021,0 106.4,10.569 155.683,31.414 47.626,20.144 90.409,48.992 127.159,85.743 36.751,36.751 65.599,79.533 85.743,127.159 C 901.431,405.6 912,457.979 912,512 c 0,54.021 -10.569,106.4 -31.414,155.683 -20.144,47.626 -48.992,90.409 -85.743,127.159 -36.751,36.751 -79.533,65.599 -127.159,85.743 C 618.4,901.431 566.021,912 512,912 457.979,912 405.6,901.431 356.317,880.586 308.691,860.442 265.908,831.594 229.158,794.843 192.407,758.092 163.559,715.31 143.415,667.684 122.569,618.4 112,566.021 112,512 c 0,-54.021 10.569,-106.4 31.414,-155.683 20.144,-47.626 48.992,-90.409 85.743,-127.159 36.751,-36.751 79.533,-65.599 127.159,-85.743 C 405.6,122.569 457.979,112 512,112 m 0,-48 C 264.576,64 64,264.576 64,512 64,759.424 264.576,960 512,960 759.424,960 960,759.424 960,512 960,264.576 759.424,64 512,64 Z"
         inkscape:connector-curvature="0" />
      <path
         id="path3829"
         p-id="8788"
         fill=""
         d="m 611.123,362 h 64 v 316 h -64 z"
         inkscape:connector-curvature="0" />
    </g>
  </g>
</svg>
