<?xml version="1.0" encoding="UTF-8" standalone="no"?>
<!-- Created with Inkscape (http://www.inkscape.org/) -->

<svg
   xmlns:dc="http://purl.org/dc/elements/1.1/"
   xmlns:cc="http://creativecommons.org/ns#"
   xmlns:rdf="http://www.w3.org/1999/02/22-rdf-syntax-ns#"
   xmlns:svg="http://www.w3.org/2000/svg"
   xmlns="http://www.w3.org/2000/svg"
   xmlns:sodipodi="http://sodipodi.sourceforge.net/DTD/sodipodi-0.dtd"
   xmlns:inkscape="http://www.inkscape.org/namespaces/inkscape"
   width="48px"
   height="48px"
   viewBox="0 0 48 48"
   fill="red"
   version="1.1"
   id="SVGRoot"
   inkscape:version="0.92.2 (5c3e80d, 2017-08-06)"
   sodipodi:docname="next.svg">
  <sodipodi:namedview
     id="base"
     pagecolor="#ffffff"
     bordercolor="#666666"
     borderopacity="1.0"
     inkscape:pageopacity="0.0"
     inkscape:pageshadow="2"
     inkscape:zoom="5.3333333"
     inkscape:cx="24"
     inkscape:cy="24"
     inkscape:document-units="px"
     inkscape:current-layer="layer1"
     showgrid="false"
     inkscape:window-width="1920"
     inkscape:window-height="1018"
     inkscape:window-x="-8"
     inkscape:window-y="-8"
     inkscape:window-maximized="1"
     inkscape:grid-bbox="true" />
  <defs
     id="defs5393" />
  <metadata
     id="metadata5396">
    <rdf:RDF>
      <cc:Work
         rdf:about="">
        <dc:format>image/svg+xml</dc:format>
        <dc:type
           rdf:resource="http://purl.org/dc/dcmitype/StillImage" />
        <dc:title></dc:title>
      </cc:Work>
    </rdf:RDF>
  </metadata>
  <g
     id="layer1"
     inkscape:groupmode="layer"
     inkscape:label="Layer 1">
    <g
       id="g5145"
       transform="matrix(3.2395943,0,0,3.2395945,1184.8814,-23.610897)">
      <path
         style="stroke-width:0.01653646"
         id="path3849-4"
         p-id="9837"
         fill=""
         d="m -358.34161,8.081977 c 0.89331,0 1.75948,0.174773 2.57444,0.519476 0.78757,0.33311 1.49505,0.810154 2.10276,1.417886 0.60773,0.607731 1.08478,1.315194 1.41789,2.102759 0.34472,0.814983 0.51949,1.681146 0.51949,2.574463 0,0.893316 -0.17477,1.759479 -0.51947,2.574445 -0.33312,0.787566 -0.81016,1.495045 -1.41789,2.10276 -0.60773,0.607731 -1.31519,1.084775 -2.10276,1.417886 -0.81498,0.344719 -1.68115,0.519493 -2.57446,0.519493 -0.89332,0 -1.75948,-0.174774 -2.57445,-0.519477 -0.78756,-0.33311 -1.49504,-0.810154 -2.10276,-1.417886 -0.60773,-0.607731 -1.08477,-1.315194 -1.41788,-2.102759 -0.34472,-0.814983 -0.5195,-1.681146 -0.5195,-2.574462 0,-0.893317 0.17478,-1.75948 0.51948,-2.574446 0.33311,-0.787566 0.81015,-1.495045 1.41789,-2.10276 0.60773,-0.607731 1.31519,-1.084775 2.10276,-1.417886 0.81498,-0.344719 1.68114,-0.519492 2.57446,-0.519492 m 0,-0.793751 c -4.09152,0 -7.40834,3.316817 -7.40834,7.408335 0,4.091517 3.31682,7.408334 7.40834,7.408334 4.09151,0 7.40833,-3.316817 7.40833,-7.408334 0,-4.091518 -3.31682,-7.408335 -7.40833,-7.408335 z"
         inkscape:connector-curvature="0" />
      <path
         style="stroke-width:0.00730094"
         inkscape:connector-curvature="0"
         d="m -356.48892,14.696774 -3.12995,3.339612 -0.57544,-0.62831 2.53548,-2.711531 -2.53548,-2.744539 0.61328,-0.595272 z"
         p-id="23766"
         id="path5123" />
    </g>
  </g>
</svg>
