<?xml version="1.0" encoding="UTF-8" standalone="no"?>
<!-- Created with Inkscape (http://www.inkscape.org/) -->

<svg
   xmlns:dc="http://purl.org/dc/elements/1.1/"
   xmlns:cc="http://creativecommons.org/ns#"
   xmlns:rdf="http://www.w3.org/1999/02/22-rdf-syntax-ns#"
   xmlns:svg="http://www.w3.org/2000/svg"
   xmlns="http://www.w3.org/2000/svg"
   xmlns:sodipodi="http://sodipodi.sourceforge.net/DTD/sodipodi-0.dtd"
   xmlns:inkscape="http://www.inkscape.org/namespaces/inkscape"
   width="48px"
   height="48px"
   viewBox="0 0 48 48"
   version="1.1"
   id="SVGRoot"
   inkscape:version="0.92.2 (5c3e80d, 2017-08-06)"
   sodipodi:docname="random.svg">
  <sodipodi:namedview
     id="base"
     pagecolor="#ffffff"
     bordercolor="#666666"
     borderopacity="1.0"
     inkscape:pageopacity="0.0"
     inkscape:pageshadow="2"
     inkscape:zoom="5.3333333"
     inkscape:cx="24"
     inkscape:cy="24"
     inkscape:document-units="px"
     inkscape:current-layer="layer1"
     showgrid="false"
     inkscape:window-width="1920"
     inkscape:window-height="1018"
     inkscape:window-x="-8"
     inkscape:window-y="-8"
     inkscape:window-maximized="1"
     inkscape:grid-bbox="true" />
  <defs
     id="defs5393" />
  <metadata
     id="metadata5396">
    <rdf:RDF>
      <cc:Work
         rdf:about="">
        <dc:format>image/svg+xml</dc:format>
        <dc:type
           rdf:resource="http://purl.org/dc/dcmitype/StillImage" />
        <dc:title></dc:title>
      </cc:Work>
    </rdf:RDF>
  </metadata>
  <g
     id="layer1"
     inkscape:groupmode="layer"
     inkscape:label="Layer 1">
    <g
       id="g5072"
       transform="matrix(3.2395943,0,0,3.2395945,1253.9326,-77.726205)">
      <path
         style="stroke-width:0.01653646"
         id="path3849-6-3"
         p-id="9837"
         fill=""
         d="m -379.65636,24.786323 c 0.89331,0 1.75948,0.174773 2.57444,0.519476 0.78757,0.33311 1.49505,0.810154 2.10276,1.417886 0.60773,0.607731 1.08478,1.315194 1.41789,2.102759 0.34472,0.814983 0.51949,1.681146 0.51949,2.574463 0,0.893316 -0.17477,1.759479 -0.51947,2.574445 -0.33312,0.787566 -0.81016,1.495045 -1.41789,2.10276 -0.60773,0.607731 -1.31519,1.084775 -2.10276,1.417886 -0.81498,0.344719 -1.68115,0.519493 -2.57446,0.519493 -0.89332,0 -1.75948,-0.174774 -2.57445,-0.519477 -0.78756,-0.33311 -1.49504,-0.810154 -2.10276,-1.417886 -0.60773,-0.607731 -1.08477,-1.315194 -1.41788,-2.102759 -0.34472,-0.814983 -0.5195,-1.681146 -0.5195,-2.574462 0,-0.893317 0.17478,-1.75948 0.51948,-2.574446 0.33311,-0.787566 0.81015,-1.495045 1.41789,-2.10276 0.60773,-0.607731 1.31519,-1.084775 2.10276,-1.417886 0.81498,-0.344719 1.68114,-0.519492 2.57446,-0.519492 m 0,-0.793751 c -4.09152,0 -7.40834,3.316817 -7.40834,7.408335 0,4.091517 3.31682,7.408334 7.40834,7.408334 4.09151,0 7.40833,-3.316817 7.40833,-7.408334 0,-4.091518 -3.31682,-7.408335 -7.40833,-7.408335 z"
         inkscape:connector-curvature="0" />
      <g
         transform="matrix(0.01135624,0,0,0.01135624,-385.11848,25.586505)"
         id="g5008">
        <path
           inkscape:connector-curvature="0"
           d="m 503.212,399.62 c 48.02,-47.603 109.809,-68.831 200.348,-68.831 h 4.625 v 51.633 c 0,16.49 11.334,22.663 25.186,13.716 l 124.264,-80.254 c 13.852,-8.946 13.717,-23.371 -0.301,-32.055 l -123.662,-76.61 c -14.017,-8.685 -25.486,-2.298 -25.486,14.192 v 51.378 h -4.625 c -105.604,0 -182.241,27.212 -241.181,85.639 -59.046,58.532 -60.589,112.848 -61.83,156.492 -0.532,18.725 -0.991,34.896 -5.667,49.654 -10.522,33.214 -38.07,63.935 -77.57,86.504 -49.704,28.4 -116.796,42.932 -193.967,42.096 -0.11,-10e-4 -0.22,-0.002 -0.33,-0.002 -15.865,0 -28.814,12.771 -28.992,28.677 -0.179,16.015 12.659,29.143 28.675,29.321 2.402,0.027 4.795,0.04 7.182,0.04 42.758,0 82.892,-4.298 119.396,-12.793 35.926,-8.36 68.498,-20.803 96.811,-36.979 52.187,-29.818 89.152,-72.203 104.087,-119.347 7.129,-22.505 7.751,-44.374 8.352,-65.523 1.14,-40.115 2.124,-74.758 44.685,-116.948 z"
           p-id="19605"
           id="path4992" />
        <path
           inkscape:connector-curvature="0"
           d="m 123.347,330.826 c 97.024,-1.086 178.164,22.495 228.401,66.391 5.499,4.805 12.299,7.163 19.07,7.163 8.079,0 16.116,-3.357 21.85,-9.919 10.539,-12.061 9.304,-30.381 -2.756,-40.919 -29.181,-25.497 -65.695,-45.388 -108.529,-59.12 -46.728,-14.979 -100.112,-22.25 -158.682,-21.591 -16.015,0.179 -28.853,13.306 -28.674,29.322 0.176,16.014 13.287,28.891 29.32,28.673 z"
           p-id="19606"
           id="path4994" />
        <path
           inkscape:connector-curvature="0"
           d="M 857.334,704.25 733.672,627.64 c -14.017,-8.685 -25.486,-2.298 -25.486,14.192 v 51.379 h -4.625 c -80.96,0 -143.128,-24.247 -195.645,-76.307 -11.375,-11.274 -29.737,-11.196 -41.012,0.18 -11.275,11.374 -11.195,29.736 0.18,41.012 63.207,62.657 140.56,93.115 236.477,93.115 h 4.625 v 51.632 c 0,16.49 11.334,22.663 25.186,13.716 l 124.264,-80.254 c 13.85,-8.946 13.716,-23.371 -0.302,-32.055 z"
           p-id="19607"
           id="path4996" />
      </g>
    </g>
  </g>
</svg>
